PathFileType	4	(X/Y/Z)	C:\Users\chris\Documents\GitHub\baseballds\vids\pitch5_Sports2D\pitch5_Sports2D_px_person00.trc
DataRate	CameraRate	NumFrames	NumMarkers	Units	OrigDataRate	OrigDataStartFrame	OrigNumFrames
30	30	4	22	m	30	93	149
Frame#	Time	Hip			RHip			RKnee			RAnkle			RBigToe			RSmallToe			RHeel			LHip			LKnee			LAnkle			LBigToe			LSmallToe			LHeel			Neck			Head			Nose			RShoulder			RElbow			RWrist			LShoulder			LElbow			LWrist		
		X1	Y1	Z1	X2	Y2	Z2	X3	Y3	Z3	X4	Y4	Z4	X5	Y5	Z5	X6	Y6	Z6	X7	Y7	Z7	X8	Y8	Z8	X9	Y9	Z9	X10	Y10	Z10	X11	Y11	Z11	X12	Y12	Z12	X13	Y13	Z13	X14	Y14	Z14	X15	Y15	Z15	X16	Y16	Z16	X17	Y17	Z17	X18	Y18	Z18	X19	Y19	Z19	X20	Y20	Z20	X21	Y21	Z21	X22	Y22	Z22
93	3.1	753.599436215068	542.4954754590309	0.0	705.1990767365769	557.3759447702424	0.0	694.8169157827349	785.119488315158	0.0	687.7638705937328	968.679711998045	0.0	689.2980346838223	1040.7845154037996	0.0	666.2452886085226	1037.997392012218	0.0	688.3740582710577	990.604980310992	0.0	812.6948722935595	558.1767844199085	0.0	684.6000476107085	527.1387300834942	0.0	600.3029860420339	714.5172888030745	0.0	523.576827673421	728.7720626187148	0.0	556.7561772714485	756.9302452243903	0.0	594.9052089105647	753.1692033677363	0.0	747.0953519349448	297.6900078143624	0.0	766.5905289874804	168.9167109601291	0.0	785.126281921321	245.34969913694357	0.0	672.2979846986674	325.43354819968783	0.0	593.3359209946542	428.77664832453297	0.0	651.2148344493563	337.9681820319212	0.0	826.5001439326161	327.15163561805196	0.0	827.5967874385575	454.7373571762089	0.0	759.9346730489369	348.72238084857435	0.0
94	3.1333333333333333	757.2960764253567	549.7949066338772	0.0	708.4001244921682	566.118670056162	0.0	697.1911174053814	785.8119096250043	0.0	688.689228345803	969.5398993981562	0.0	687.6511029526104	1041.873265228265	0.0	663.4472504486155	1039.6388999381124	0.0	688.9887542150061	989.3542801073955	0.0	813.0666546648112	560.5858674325358	0.0	687.3853341086991	474.33494041215454	0.0	591.2612181662656	662.4948631855177	0.0	496.32696308082546	657.956965169722	0.0	527.9470921167166	686.2000765013308	0.0	579.0055907646037	706.0298530567283	0.0	747.7664242024819	298.0545627302332	0.0	764.3208889262114	173.05578260519184	0.0	784.2143385327901	245.35455828932032	0.0	672.5521073852409	328.01766416729936	0.0	592.4198323562503	424.00037013810595	0.0	651.2588201898348	323.7905067702676	0.0	828.1994120124602	325.2091724320667	0.0	829.5558479138838	447.17678755396037	0.0	764.4930898817712	335.0358738758915	0.0
95	3.1666666666666665	764.6571430335159	557.4121474353844	0.0	716.2633825259887	575.1512429789534	0.0	699.4890628138963	786.9626683211305	0.0	689.5215485287058	971.6079925006197	0.0	686.113076542327	1042.5995560417123	0.0	660.4729718099785	1040.485162594044	0.0	691.5291406750019	992.458143096108	0.0	815.6215520007358	560.4496551914091	0.0	694.3516686292692	427.5908702591756	0.0	589.3868884842918	619.5366439097702	0.0	480.01822962300963	591.766749682718	0.0	503.8207581293016	617.6468351514336	0.0	573.6181617516837	665.6897265159483	0.0	746.3215216127885	298.93863904036147	0.0	760.1832200539502	179.77985568689846	0.0	781.2999815752678	247.35807670271748	0.0	673.5256860346105	329.53089086697537	0.0	591.5574084755181	420.99756333041	0.0	650.5641311282156	313.6584812591732	0.0	828.9642805874465	324.0169878379103	0.0	831.5781940342326	439.11447426699556	0.0	767.4511509051088	325.90366465634764	0.0
96	3.2	772.7734735128008	561.2552894784255	0.0	724.7239134391025	578.7871667768845	0.0	701.2245625809912	788.0708052203853	0.0	689.9093782398047	972.7073023204608	0.0	685.1899887672024	1042.9216646533946	0.0	659.4355495836401	1041.0123997972223	0.0	693.8351895308529	997.5046415535148	0.0	819.8146360647596	558.6533441145106	0.0	701.6703025297982	397.0741800884823	0.0	591.2157329803371	589.0454554074387	0.0	478.0365649992659	544.6888675558981	0.0	492.0227708708194	565.6146120965296	0.0	575.1344122062793	636.8003724072557	0.0	743.6903821419077	300.4008414798911	0.0	752.2287622948052	186.9694141199191	0.0	773.9542889890058	251.17491448521562	0.0	673.6422650357857	331.2212920149575	0.0	591.2096342345085	419.31257004577196	0.0	648.3877488006729	309.0867259207654	0.0	829.5246696501579	323.7446361762553	0.0	832.1072384827679	430.9753303524884	0.0	767.3912024995161	321.9484862177959	0.0
